<?xml version="1.0" encoding="utf-8"?>
<!-- Generator: Adobe Illustrator 21.0.0, SVG Export Plug-In . SVG Version: 6.00 Build 0)  -->
<svg version="1.1" id="Layer_1" xmlns="http://www.w3.org/2000/svg" xmlns:xlink="http://www.w3.org/1999/xlink" x="0px" y="0px"
	 viewBox="0 0 41.9 43" style="enable-background:new 0 0 41.9 43;" xml:space="preserve">
<style type="text/css">
	.st0{display:none;fill:url(#SVGID_1_);}
	.st1{display:none;fill:url(#SVGID_2_);}
	.st2{display:none;fill:url(#SVGID_3_);}
	.st3{display:none;fill:url(#SVGID_4_);}
	.st4{display:none;fill:url(#SVGID_5_);}
	.st5{display:none;fill:url(#SVGID_6_);}
	.st6{display:none;fill:url(#SVGID_7_);}
	.st7{fill:url(#SVGID_8_);}
	.st8{fill:#FFFFFF;}
</style>
<title>Artboard 1</title>
<linearGradient id="SVGID_1_" gradientUnits="userSpaceOnUse" x1="762.1149" y1="-1390.9399" x2="762.1149" y2="-1415.9399" gradientTransform="matrix(1 0 0 -1 -709.5 -1379.5)">
	<stop  offset="0" style="stop-color:#D61395"/>
	<stop  offset="0.44" style="stop-color:#D41394"/>
	<stop  offset="0.59" style="stop-color:#CD1291"/>
	<stop  offset="0.7" style="stop-color:#C2108C"/>
	<stop  offset="0.8" style="stop-color:#B10E84"/>
	<stop  offset="0.87" style="stop-color:#9B0B7A"/>
	<stop  offset="0.94" style="stop-color:#80086D"/>
	<stop  offset="1" style="stop-color:#61045F"/>
</linearGradient>
<path class="st0" d="M51.3,18.9c0.5-0.6,1.1-1,1.8-1.3c0.7-0.3,1.4-0.5,2.1-0.5c0.5,0,1,0.1,1.4,0.5c0.3,0.3,0.4,0.6,0.4,1
	c0,0.4-0.2,0.8-0.4,1.1c-0.3,0.3-0.7,0.5-1.1,0.5c-1.8,0-3.2,1.4-4.2,4.3V30c0,0.4-0.2,0.8-0.5,1.1c-0.3,0.3-0.7,0.4-1.1,0.4
	c-0.4,0-0.8-0.2-1.1-0.4c-0.3-0.3-0.5-0.7-0.5-1.1V18.7c0-0.4,0.2-0.8,0.5-1.1c0.3-0.3,0.7-0.4,1.1-0.4c0.4,0,0.8,0.1,1.1,0.4
	c0.3,0.3,0.5,0.7,0.5,1.1V18.9z"/>
<linearGradient id="SVGID_2_" gradientUnits="userSpaceOnUse" x1="775.6246" y1="-1390.9399" x2="775.6246" y2="-1415.9399" gradientTransform="matrix(1 0 0 -1 -709.5 -1379.5)">
	<stop  offset="0" style="stop-color:#D61395"/>
	<stop  offset="0.44" style="stop-color:#D41394"/>
	<stop  offset="0.59" style="stop-color:#CD1291"/>
	<stop  offset="0.7" style="stop-color:#C2108C"/>
	<stop  offset="0.8" style="stop-color:#B10E84"/>
	<stop  offset="0.87" style="stop-color:#9B0B7A"/>
	<stop  offset="0.94" style="stop-color:#80086D"/>
	<stop  offset="1" style="stop-color:#61045F"/>
</linearGradient>
<path class="st1" d="M61.3,29.5c-1.3-1.4-2-3.2-2-5.1c0-1.9,0.7-3.7,2-5.1c1.2-1.4,3-2.1,4.9-2.1c1.4,0,2.7,0.4,3.8,1.3
	c0.1-0.3,0.3-0.7,0.6-0.9c0.3-0.2,0.6-0.4,1-0.4c0.4,0,0.7,0.2,1,0.5c0.3,0.3,0.5,0.7,0.5,1.1V30c0,0.4-0.2,0.8-0.4,1.1
	c-0.3,0.3-0.6,0.4-1,0.4c-0.4,0-0.7-0.1-1-0.3c-0.3-0.2-0.5-0.5-0.6-0.9c-1.1,0.8-2.4,1.2-3.8,1.2C64.3,31.6,62.5,30.8,61.3,29.5z
	 M62.4,24.4c0,1.1,0.3,2.1,1,2.9c0.7,0.8,1.7,1.2,2.7,1.2c1,0,2-0.4,2.7-1.2c1.4-1.7,1.4-4.2,0-5.8c-0.7-0.8-1.7-1.2-2.7-1.2
	c-1,0-2,0.4-2.7,1.2C62.7,22.3,62.3,23.3,62.4,24.4z"/>
<linearGradient id="SVGID_3_" gradientUnits="userSpaceOnUse" x1="792.88" y1="-1390.9399" x2="792.88" y2="-1415.9399" gradientTransform="matrix(1 0 0 -1 -709.5 -1379.5)">
	<stop  offset="0" style="stop-color:#D61395"/>
	<stop  offset="0.44" style="stop-color:#D41394"/>
	<stop  offset="0.59" style="stop-color:#CD1291"/>
	<stop  offset="0.7" style="stop-color:#C2108C"/>
	<stop  offset="0.8" style="stop-color:#B10E84"/>
	<stop  offset="0.87" style="stop-color:#9B0B7A"/>
	<stop  offset="0.94" style="stop-color:#80086D"/>
	<stop  offset="1" style="stop-color:#61045F"/>
</linearGradient>
<path class="st2" d="M86.8,17.6c0.3-0.3,0.7-0.4,1.1-0.4c0.4,0,0.8,0.2,1.1,0.4c0.3,0.3,0.5,0.7,0.5,1.1v10.9c0,3.8-3,6.8-6.8,6.9
	c0,0-0.1,0-0.1,0c-1,0-2.1-0.2-3-0.7c-0.4-0.1-0.7-0.5-0.8-0.8c-0.1-0.4-0.1-0.8,0.1-1.2c0.2-0.3,0.5-0.6,0.9-0.7
	c0.4-0.1,0.9-0.1,1.3,0.2c0.5,0.2,1.1,0.4,1.7,0.3c0.7,0,1.4-0.3,2-0.8c0.6-0.5,1.1-1.1,1.3-1.9c-0.8,0.5-1.8,0.7-2.7,0.7
	c-3.3,0-6-2.7-6-6v-6.8c0-0.8,0.7-1.5,1.5-1.5c0,0,0,0,0,0c0.4,0,0.8,0.1,1.1,0.4c0.3,0.3,0.5,0.7,0.4,1.1v6.8
	c0,0.8,0.3,1.5,0.9,2.1c0.6,0.6,1.3,0.9,2.1,0.9c0.8,0,1.5-0.3,2.1-0.9c0.6-0.5,0.9-1.3,0.9-2.1v-6.8C86.3,18.3,86.5,17.9,86.8,17.6
	z"/>
<linearGradient id="SVGID_4_" gradientUnits="userSpaceOnUse" x1="810.205" y1="-1390.9399" x2="810.205" y2="-1415.9399" gradientTransform="matrix(1 0 0 -1 -709.5 -1379.5)">
	<stop  offset="0" style="stop-color:#D61395"/>
	<stop  offset="0.44" style="stop-color:#D41394"/>
	<stop  offset="0.59" style="stop-color:#CD1291"/>
	<stop  offset="0.7" style="stop-color:#C2108C"/>
	<stop  offset="0.8" style="stop-color:#B10E84"/>
	<stop  offset="0.87" style="stop-color:#9B0B7A"/>
	<stop  offset="0.94" style="stop-color:#80086D"/>
	<stop  offset="1" style="stop-color:#61045F"/>
</linearGradient>
<path class="st3" d="M96.6,29.4c-2.8-2.7-2.9-7.1-0.2-9.9c0.1-0.1,0.2-0.2,0.2-0.2c1.4-1.4,3.2-2.1,5.1-2.1c1.7,0,3.3,0.6,4.6,1.6
	c0.7,0.5,0.8,1.5,0.3,2.1c-0.2,0.3-0.6,0.5-1,0.6c-0.4,0.1-0.8-0.1-1.1-0.3c-0.8-0.6-1.8-0.9-2.8-0.9c-1.1,0-2.1,0.5-2.9,1.2
	c-1.6,1.5-1.7,4.1-0.1,5.7c0,0,0.1,0.1,0.1,0.1c0.7,0.8,1.8,1.2,2.9,1.2c1,0,2-0.3,2.9-0.9c0.3-0.2,0.7-0.4,1.1-0.3
	c0.4,0.1,0.8,0.3,1,0.6c0.3,0.3,0.4,0.7,0.3,1.1c-0.1,0.4-0.3,0.8-0.6,1c-1.3,1-2.9,1.5-4.6,1.5C99.9,31.6,98,30.8,96.6,29.4z"/>
<linearGradient id="SVGID_5_" gradientUnits="userSpaceOnUse" x1="827.6548" y1="-1390.9399" x2="827.6548" y2="-1415.9399" gradientTransform="matrix(1 0 0 -1 -709.5 -1379.5)">
	<stop  offset="0" style="stop-color:#D61395"/>
	<stop  offset="0.44" style="stop-color:#D41394"/>
	<stop  offset="0.59" style="stop-color:#CD1291"/>
	<stop  offset="0.7" style="stop-color:#C2108C"/>
	<stop  offset="0.8" style="stop-color:#B10E84"/>
	<stop  offset="0.87" style="stop-color:#9B0B7A"/>
	<stop  offset="0.94" style="stop-color:#80086D"/>
	<stop  offset="1" style="stop-color:#61045F"/>
</linearGradient>
<path class="st4" d="M114.6,31.1c-0.3,0.3-0.7,0.5-1.1,0.5c-0.4,0-0.8-0.2-1.1-0.5c-0.3-0.3-0.5-0.7-0.5-1.1V13
	c0-0.4,0.2-0.8,0.5-1.1c0.3-0.3,0.7-0.5,1.1-0.5c0.4,0,0.8,0.2,1.1,0.5c0.3,0.3,0.5,0.7,0.5,1.1v5c0.9-0.5,2-0.8,3.1-0.8
	c1.7,0,3.3,0.6,4.4,1.8c1.2,1.2,1.9,2.8,1.8,4.4V30c0,0.4-0.2,0.8-0.5,1.1c-0.6,0.6-1.6,0.6-2.3,0c-0.3-0.3-0.5-0.7-0.5-1.1v-6.5
	c0-0.8-0.3-1.6-0.9-2.2c-0.6-0.6-1.4-0.9-2.2-0.9c-0.8,0-1.6,0.3-2.2,0.9c-0.6,0.6-0.9,1.4-0.9,2.2V30
	C115.1,30.4,114.9,30.8,114.6,31.1z"/>
<linearGradient id="SVGID_6_" gradientUnits="userSpaceOnUse" x1="844.3345" y1="-1390.9399" x2="844.3345" y2="-1415.9399" gradientTransform="matrix(1 0 0 -1 -709.5 -1379.5)">
	<stop  offset="0" style="stop-color:#D61395"/>
	<stop  offset="0.44" style="stop-color:#D41394"/>
	<stop  offset="0.59" style="stop-color:#CD1291"/>
	<stop  offset="0.7" style="stop-color:#C2108C"/>
	<stop  offset="0.8" style="stop-color:#B10E84"/>
	<stop  offset="0.87" style="stop-color:#9B0B7A"/>
	<stop  offset="0.94" style="stop-color:#80086D"/>
	<stop  offset="1" style="stop-color:#61045F"/>
</linearGradient>
<path class="st5" d="M130,29.5c-1.3-1.4-2-3.2-2-5.1c0-1.9,0.7-3.7,2-5.1c1.2-1.4,3-2.1,4.9-2.1c1.4,0,2.7,0.4,3.8,1.3
	c0.1-0.3,0.3-0.7,0.5-0.9c0.3-0.2,0.6-0.4,1-0.4c0.4,0,0.7,0.2,1,0.5c0.3,0.3,0.4,0.7,0.4,1.1V30c0,0.4-0.2,0.8-0.4,1.1
	c-0.3,0.3-0.6,0.4-1,0.4c-0.4,0-0.7-0.1-1-0.3c-0.3-0.2-0.5-0.5-0.5-0.9c-1.1,0.8-2.4,1.2-3.8,1.2C133,31.6,131.3,30.8,130,29.5z
	 M131.1,24.4c0,1.1,0.3,2.1,1,2.9c0.7,0.8,1.7,1.2,2.7,1.2c1,0,2-0.4,2.7-1.2c0.7-0.8,1.1-1.8,1.1-2.9c0-1.1-0.4-2.1-1.1-2.9
	c-1.3-1.5-3.7-1.6-5.1-0.3c-0.1,0.1-0.2,0.2-0.3,0.3C131.4,22.3,131,23.3,131.1,24.4L131.1,24.4z"/>
<linearGradient id="SVGID_7_" gradientUnits="userSpaceOnUse" x1="859.2849" y1="-1390.9399" x2="859.2849" y2="-1415.9301" gradientTransform="matrix(1 0 0 -1 -709.5 -1379.5)">
	<stop  offset="0" style="stop-color:#D61395"/>
	<stop  offset="0.44" style="stop-color:#D41394"/>
	<stop  offset="0.59" style="stop-color:#CD1291"/>
	<stop  offset="0.7" style="stop-color:#C2108C"/>
	<stop  offset="0.8" style="stop-color:#B10E84"/>
	<stop  offset="0.87" style="stop-color:#9B0B7A"/>
	<stop  offset="0.94" style="stop-color:#80086D"/>
	<stop  offset="1" style="stop-color:#61045F"/>
</linearGradient>
<path class="st6" d="M152.1,17.2c0.4,0,0.8,0.2,1.1,0.5c0.3,0.3,0.5,0.7,0.5,1.1c0,0.9-0.7,1.6-1.6,1.6h-0.7v8
	c0.4,0,0.8,0.2,1.1,0.5c0.3,0.3,0.5,0.7,0.5,1.2c0,0.9-0.7,1.6-1.6,1.6c0,0,0,0,0,0c-1.8,0-3.2-1.4-3.2-3.2v0v-8h-0.8
	c-0.4,0-0.8-0.2-1.1-0.5c-0.3-0.3-0.5-0.7-0.5-1.1c0-0.9,0.7-1.6,1.6-1.6c0,0,0,0,0,0h0.8V13c0-0.4,0.2-0.8,0.5-1.1
	c0.3-0.3,0.7-0.5,1.1-0.5c0.9,0,1.6,0.7,1.6,1.6c0,0,0,0,0,0v4.2L152.1,17.2z"/>
<linearGradient id="SVGID_8_" gradientUnits="userSpaceOnUse" x1="27.5603" y1="41.9196" x2="15.6949" y2="3.1018" gradientTransform="matrix(1 0 0 -1 0 44)">
	<stop  offset="0" style="stop-color:#D61395"/>
	<stop  offset="0.27" style="stop-color:#BB1089"/>
	<stop  offset="0.83" style="stop-color:#760769"/>
	<stop  offset="1" style="stop-color:#61045F"/>
</linearGradient>
<path class="st7" d="M21.6,41.8c-11.2,0-20.3-9.1-20.3-20.3S10.4,1.2,21.6,1.2s20.3,9.1,20.3,20.3c0,0,0,0,0,0
	C41.9,32.7,32.8,41.8,21.6,41.8z"/>
<path class="st8" d="M21.6,1.7c10.9,0,19.8,8.9,19.8,19.8s-8.9,19.8-19.8,19.8S1.9,32.4,1.9,21.5l0,0C1.9,10.6,10.7,1.7,21.6,1.7
	 M21.6,0.7C10.2,0.7,0.8,10,0.8,21.5s9.3,20.8,20.8,20.8S42.4,33,42.4,21.5c0,0,0,0,0,0C42.4,10,33.1,0.7,21.6,0.7z"/>
<path class="st8" d="M21.1,22.5c-0.3-0.4-0.3-1,0.1-1.3c0.3-0.3,0.8-0.3,1.1,0c2.6,2.6,6.8,3,9.9,0.8c0.3-1.7,0.3-3.4-0.1-5
	c-0.4,0.9-1.4,1.3-2.3,0.9c-0.9-0.4-1.3-1.4-0.9-2.3c0.3-0.6,0.9-1,1.6-1c0.2,0,0.5,0,0.7,0.1c-2.8-5.3-9.3-7.3-14.6-4.5
	s-7.3,9.3-4.5,14.6c1.6,3,4.5,5.1,7.9,5.6l-1,2.3c-0.5,1.9,0.6,2.6,2.2,1.3l7.6-6.1l0,0c1-0.9,1.9-2,2.5-3.3
	C27.8,26,23.8,25.2,21.1,22.5z M23.7,14.6c1,0,1.7,0.8,1.7,1.7s-0.8,1.7-1.7,1.7c-1,0-1.7-0.8-1.7-1.7c0,0,0,0,0,0
	C22,15.4,22.8,14.6,23.7,14.6z"/>
</svg>
